<svg width="429" height="75.1116178986659" viewBox="0 0 370.18518518518516 64.8140050847937" class="looka-1j8o68f">
    <defs id="SvgjsDefs1561"></defs>
    <g id="SvgjsG1562" featurekey="2ou6gm-0"
        transform="matrix(0.8101750635599213,0,0,0.8101750635599213,-8.101750635599213,-8.101750635599213)"
        fill="#fcfcfc">
        <path xmlns="http://www.w3.org/2000/svg" fill="none" stroke="#fcfcfc" stroke-linecap="round"
            stroke-linejoin="round" stroke-miterlimit="10" d="M25,69.998L22.499,90  L25,69.998z"></path>
        <path xmlns="http://www.w3.org/2000/svg" fill="none" stroke="#fcfcfc" stroke-linecap="round"
            stroke-linejoin="round" stroke-miterlimit="10"
            d="M47.5,49.169  c-1.557,0.927-3.238,1.454-4.999,1.454c-2.249,0-4.371-0.833-6.26-2.294v0.548c0,1.844-0.744,3.514-1.953,4.717  c-0.616,0.615-1.351,1.109-2.167,1.445l-18.755,7.773C11.285,64.893,10,67.762,10,70.936V90h37.5V49.169z">
        </path>
        <path xmlns="http://www.w3.org/2000/svg" fill="none" stroke="#fcfcfc" stroke-linecap="round"
            stroke-linejoin="round" stroke-miterlimit="10"
            d="M47.5,10.912  C45.943,10.327,44.262,10,42.501,10c-7.262,0-13.239,5.446-14.104,12.478v4.059c-1.84,0.654-3.163,2.391-3.163,4.454  c0,4.038,2.05,7.311,4.606,7.424c2.35,7.242,7.131,12.209,12.66,12.209c1.761,0,3.442-0.506,4.999-1.429V10.912z">
        </path>
        <path xmlns="http://www.w3.org/2000/svg" fill="none" stroke="#fcfcfc" stroke-linecap="round"
            stroke-linejoin="round" stroke-miterlimit="10" d="M77.272,53.51  l-2.653-2.652L77.272,53.51z"></path>
        <circle xmlns="http://www.w3.org/2000/svg" fill="none" stroke="#fcfcfc" stroke-linecap="round"
            stroke-linejoin="round" stroke-miterlimit="10" cx="77.499" cy="77.498" r="5.729"></circle>
        <path xmlns="http://www.w3.org/2000/svg" fill="none" stroke="#fcfcfc" stroke-linecap="round"
            stroke-linejoin="round" stroke-miterlimit="10"
            d="M81.088,86.158  c1.466-0.605,3.117-0.002,3.891,1.338c0.956-0.717,1.802-1.564,2.517-2.52c-1.34-0.771-1.942-2.424-1.335-3.893  c0.608-1.467,2.203-2.207,3.695-1.805c0.084-0.582,0.143-1.174,0.143-1.781c0-0.605-0.059-1.195-0.143-1.777  c-1.492,0.402-3.089-0.344-3.695-1.809c-0.607-1.469-0.005-3.121,1.335-3.891c-0.715-0.957-1.562-1.805-2.517-2.521  c-0.773,1.344-2.427,1.947-3.893,1.34c-1.468-0.609-2.212-2.203-1.807-3.699C78.695,65.059,78.104,65,77.5,65  c-0.608,0-1.197,0.059-1.781,0.141c0.403,1.496-0.341,3.09-1.807,3.699c-1.468,0.607-3.12,0.004-3.89-1.336  c-0.956,0.717-1.802,1.561-2.519,2.518c1.342,0.77,1.944,2.426,1.337,3.891c-0.608,1.467-2.203,2.211-3.698,1.809  c-0.085,0.582-0.142,1.172-0.142,1.777c0,0.607,0.057,1.199,0.142,1.781c1.495-0.402,3.09,0.342,3.698,1.809  c0.607,1.467,0.005,3.121-1.337,3.893c0.717,0.955,1.563,1.799,2.519,2.516c0.77-1.34,2.423-1.943,3.89-1.338  c1.466,0.611,2.21,2.205,1.807,3.701C76.303,89.941,76.892,90,77.5,90c0.606,0,1.197-0.059,1.779-0.141  C78.876,88.363,79.622,86.77,81.088,86.158z">
        </path>
        <path xmlns="http://www.w3.org/2000/svg" fill="none" stroke="#fcfcfc" stroke-linecap="round"
            stroke-linejoin="round" stroke-miterlimit="10" d="M86.59,36.65v-3.304  V36.65z"></path>
        <path xmlns="http://www.w3.org/2000/svg" fill="none" stroke="#fcfcfc" stroke-linecap="round"
            stroke-linejoin="round" stroke-miterlimit="10"
            d="M78.777,10.357  c-0.475-0.475-1.25-0.475-1.728,0.004l0,0L58.892,28.513L55.003,35l6.482-3.889l18.159-18.159l0,0c0.477-0.476,0.476-1.251,0-1.727  L78.777,10.357z">
        </path>
        <path xmlns="http://www.w3.org/2000/svg" fill="none" stroke="#fcfcfc" stroke-linecap="round"
            stroke-linejoin="round" stroke-miterlimit="10" d="M75.32,12.086  l2.595,2.595L75.32,12.086z"></path>
        <path xmlns="http://www.w3.org/2000/svg" fill="none" stroke="#fcfcfc" stroke-linecap="round"
            stroke-linejoin="round" stroke-miterlimit="10" d="M73.591,13.816  l2.595,2.595L73.591,13.816z"></path>
        <path xmlns="http://www.w3.org/2000/svg" fill="none" stroke="#fcfcfc" stroke-linecap="round"
            stroke-linejoin="round" stroke-miterlimit="10" d="M58.892,28.516  l2.594,2.595L58.892,28.516z"></path>
        <path xmlns="http://www.w3.org/2000/svg" fill="none" stroke="#fcfcfc" stroke-linecap="round"
            stroke-linejoin="round" stroke-miterlimit="10"
            d="M83.902,56.6  L71.527,44.229c-1.464-1.464-3.839-1.464-5.304,0l0,0L47.5,62.953v15.578l7.234,7.238c1.465,1.465,3.838,1.469,5.303,0l6.528-6.527  c-0.462-0.094-0.946-0.094-1.423,0.037c-0.085-0.582-0.142-1.174-0.142-1.781c0-0.605,0.057-1.195,0.142-1.777  c1.495,0.402,3.09-0.342,3.698-1.809c0.607-1.465,0.005-3.121-1.337-3.891c0.717-0.957,1.563-1.801,2.519-2.518  c0.77,1.34,2.422,1.943,3.89,1.336c1.466-0.609,2.21-2.203,1.807-3.699C76.303,65.059,76.892,65,77.5,65  c0.604,0,1.195,0.059,1.779,0.141c-0.13,0.479-0.13,0.965-0.038,1.426l4.659-4.66h0.002C85.366,60.441,85.366,58.064,83.902,56.6z">
        </path>
        <path xmlns="http://www.w3.org/2000/svg" fill="none" stroke="#fcfcfc" stroke-linecap="round"
            stroke-linejoin="round" stroke-miterlimit="10"
            d="M65.34,45.115  L47.5,62.953v6.748l14.304,14.305l4.765-4.764c-0.463-0.094-0.949-0.094-1.426,0.037c-0.085-0.582-0.142-1.174-0.142-1.781  c0-0.605,0.057-1.195,0.142-1.777c1.495,0.402,3.09-0.342,3.698-1.809c0.607-1.465,0.005-3.121-1.337-3.891  c0.717-0.957,1.563-1.801,2.519-2.518c0.77,1.34,2.422,1.943,3.89,1.336c1.466-0.609,2.21-2.203,1.807-3.699  C76.303,65.059,76.892,65,77.5,65c0.604,0,1.195,0.059,1.779,0.141c-0.13,0.479-0.13,0.965-0.038,1.43l3.777-3.779L65.34,45.115z">
        </path>
        <path xmlns="http://www.w3.org/2000/svg" fill="none" stroke="#fcfcfc" stroke-linecap="round"
            stroke-linejoin="round" stroke-miterlimit="10"
            d="M86.692,16.817  H75.779L61.485,31.111L55.003,35l3.889-6.486l11.697-11.696H47.5v36.367h9.771l8.953-8.955l0,0c1.465-1.464,3.84-1.464,5.304,0  l8.954,8.955h6.211c1.826,0,3.308-1.482,3.308-3.308V20.125C90,18.298,88.519,16.817,86.692,16.817z">
        </path>
        <path xmlns="http://www.w3.org/2000/svg" fill="none" stroke="#fcfcfc" stroke-linecap="round"
            stroke-linejoin="round" stroke-miterlimit="10"
            d="M73.505,19.09  l-12.02,12.021L55.003,35l3.889-6.486l9.425-9.423H47.5v31.82h12.044l6.68-6.681l0,0c1.465-1.464,3.84-1.464,5.304,0l6.681,6.681  h4.973V19.09H73.505z">
        </path>
    </g>
</svg>